name Walk6.mot
datacolumns 19
datarows 25
range 1.82800000 1.85200000
endheader

                time	   L_ground_force_vx	   L_ground_force_vy	   L_ground_force_vz	   L_ground_force_px	   L_ground_force_py	   L_ground_force_pz	   R_ground_force_vx	   R_ground_force_vy	   R_ground_force_vz	   R_ground_force_px	   R_ground_force_py	   R_ground_force_pz	   L_ground_torque_x	   L_ground_torque_y	   L_ground_torque_z	   R_ground_torque_x	   R_ground_torque_y	   R_ground_torque_z	
          1.82800000	          0.20066952	          0.37966433	         -0.01195676	          0.00043274	          0.00000000	          0.00026811	         -4.07228723	        575.24082892	        -48.20637332	          0.14666723	          0.00000000	          0.04321897	          0.00000000	         -0.00008206	          0.00000000	          0.00000000	          2.88257036	          0.00000000	
          1.82900000	          0.19438217	          0.38182012	         -0.01258671	          0.00036298	          0.00000000	          0.00023199	         -3.73185689	        574.02028002	        -48.21341386	          0.14714981	          0.00000000	          0.04324346	          0.00000000	         -0.00007493	          0.00000000	          0.00000000	          2.89273686	          0.00000000	
          1.83000000	          0.18789488	          0.38234981	         -0.01311553	          0.00029778	          0.00000000	          0.00019807	         -3.39989295	        572.83946578	        -48.22052919	          0.14763561	          0.00000000	          0.04326738	          0.00000000	         -0.00006813	          0.00000000	          0.00000000	          2.90349418	          0.00000000	
          1.83100000	          0.18124915	          0.38138964	         -0.01354983	          0.00023699	          0.00000000	          0.00016627	         -3.07640325	        571.69894767	        -48.22772130	          0.14812463	          0.00000000	          0.04329075	          0.00000000	         -0.00006164	          0.00000000	          0.00000000	          2.91484213	          0.00000000	
          1.83200000	          0.17448357	          0.37906994	         -0.01389601	          0.00018048	          0.00000000	          0.00013656	         -2.76139165	        570.59926501	        -48.23499797	          0.14861692	          0.00000000	          0.04331361	          0.00000000	         -0.00005548	          0.00000000	          0.00000000	          2.92678075	          0.00000000	
          1.83300000	          0.16763389	          0.37551504	         -0.01416024	          0.00012809	          0.00000000	          0.00010885	         -2.45485740	        569.54093245	        -48.24237088	          0.14911249	          0.00000000	          0.04333599	          0.00000000	         -0.00004962	          0.00000000	          0.00000000	          2.93930955	          0.00000000	
          1.83400000	          0.16073316	          0.37084342	         -0.01434850	          0.00007967	          0.00000000	          0.00008309	         -2.15679436	        568.52443630	        -48.24985415	          0.14961139	          0.00000000	          0.04335790	          0.00000000	         -0.00004408	          0.00000000	          0.00000000	          2.95242687	          0.00000000	
          1.83500000	          0.15381178	          0.36516766	         -0.01446653	          0.00003507	          0.00000000	          0.00005921	         -1.86719026	        567.55022998	        -48.25746349	          0.15011363	          0.00000000	          0.04337937	          0.00000000	         -0.00003884	          0.00000000	          0.00000000	          2.96612949	          0.00000000	
          1.83600000	          0.14689766	          0.35859460	         -0.01451986	         -0.00000587	          0.00000000	          0.00003713	         -1.58602577	        566.61872950	        -48.26521579	          0.15061924	          0.00000000	          0.04340042	          0.00000000	         -0.00003390	          0.00000000	          0.00000000	          2.98041249	          0.00000000	
          1.83700000	          0.14001632	          0.35122536	         -0.01451379	         -0.00004331	          0.00000000	          0.00001679	         -1.31327354	        565.73030963	        -48.27312878	          0.15112823	          0.00000000	          0.04342107	          0.00000000	         -0.00002926	          0.00000000	          0.00000000	          2.99526929	          0.00000000	
          1.83800000	          0.13319097	          0.34315548	         -0.01445339	         -0.00007741	          0.00000000	         -0.00000189	         -1.04889714	        564.88530137	        -48.28122063	          0.15164060	          0.00000000	          0.04344130	          0.00000000	         -0.00002490	          0.00000000	          0.00000000	          3.01069171	          0.00000000	
          1.83900000	          0.12644264	          0.33447504	         -0.01434351	         -0.00010831	          0.00000000	         -0.00001897	         -0.79284967	        564.08399083	        -48.28950952	          0.15215634	          0.00000000	          0.04346114	          0.00000000	         -0.00002081	          0.00000000	          0.00000000	          3.02666998	          0.00000000	
          1.84000000	          0.11979029	          0.32526874	         -0.01418877	         -0.00013617	          0.00000000	         -0.00003452	         -0.54507248	        563.32661924	        -48.29801319	          0.15267543	          0.00000000	          0.04348056	          0.00000000	         -0.00001699	          0.00000000	          0.00000000	          3.04319278	          0.00000000	
          1.84100000	          0.11325089	          0.31561608	         -0.01399357	         -0.00016115	          0.00000000	         -0.00004863	         -0.30549370	        562.61338400	        -48.30674869	          0.15319783	          0.00000000	          0.04349957	          0.00000000	         -0.00001344	          0.00000000	          0.00000000	          3.06024718	          0.00000000	
          1.84200000	          0.10683954	          0.30559149	         -0.01376209	         -0.00018340	          0.00000000	         -0.00006135	         -0.07402713	        561.94444038	        -48.31573223	          0.15372350	          0.00000000	          0.04351815	          0.00000000	         -0.00001013	          0.00000000	          0.00000000	          3.07781877	          0.00000000	
          1.84300000	          0.10056960	          0.29526447	         -0.01349829	         -0.00020306	          0.00000000	         -0.00007275	          0.14942874	        561.31990379	        -48.32497934	          0.15425239	          0.00000000	          0.04353629	          0.00000000	         -0.00000707	          0.00000000	          0.00000000	          3.09589166	          0.00000000	
          1.84400000	          0.09445272	          0.28469977	         -0.01320591	         -0.00022029	          0.00000000	         -0.00008292	          0.36499109	        560.73985224	        -48.33450499	          0.15478442	          0.00000000	          0.04355397	          0.00000000	         -0.00000424	          0.00000000	          0.00000000	          3.11444873	          0.00000000	
          1.84500000	          0.08849901	          0.27395750	         -0.01288849	         -0.00023522	          0.00000000	         -0.00009190	          0.57279282	        560.20432877	        -48.34432394	          0.15531951	          0.00000000	          0.04357117	          0.00000000	         -0.00000164	          0.00000000	          0.00000000	          3.13347166	          0.00000000	
          1.84600000	          0.08271709	          0.26309337	         -0.01254935	         -0.00024799	          0.00000000	         -0.00009977	          0.77298204	        559.71334372	        -48.35445091	          0.15585758	          0.00000000	          0.04358789	          0.00000000	          0.00000075	          0.00000000	          0.00000000	          3.15294090	          0.00000000	
          1.84700000	          0.07711420	          0.25215878	         -0.01219163	         -0.00025873	          0.00000000	         -0.00010660	          0.96572129	        559.26687692	        -48.36490088	          0.15639852	          0.00000000	          0.04360412	          0.00000000	          0.00000294	          0.00000000	          0.00000000	          3.17283557	          0.00000000	
          1.84800000	          0.07169630	          0.24120105	         -0.01181825	         -0.00026759	          0.00000000	         -0.00011245	          1.15118647	        558.86487971	        -48.37568927	          0.15694225	          0.00000000	          0.04361986	          0.00000000	          0.00000492	          0.00000000	          0.00000000	          3.19313306	          0.00000000	
          1.84900000	          0.06646813	          0.23026354	         -0.01143196	         -0.00027468	          0.00000000	         -0.00011737	          1.32956560	        558.50727604	        -48.38683224	          0.15748864	          0.00000000	          0.04363509	          0.00000000	          0.00000672	          0.00000000	          0.00000000	          3.21380874	          0.00000000	
          1.85000000	          0.06143331	          0.21938588	         -0.01103532	         -0.00028013	          0.00000000	         -0.00012143	          1.50105768	        558.19396229	        -48.39834713	          0.15803758	          0.00000000	          0.04364982	          0.00000000	          0.00000834	          0.00000000	          0.00000000	          3.23483580	          0.00000000	
          1.85100000	          0.05659443	          0.20860407	         -0.01063070	         -0.00028406	          0.00000000	         -0.00012468	          1.66587152	        557.92480513	        -48.41025309	          0.15858896	          0.00000000	          0.04366404	          0.00000000	          0.00000979	          0.00000000	          0.00000000	          3.25618519	          0.00000000	
          1.85200000	          0.05195312	          0.19795071	         -0.01022031	         -0.00028658	          0.00000000	         -0.00012719	          1.82422473	        557.69963841	        -48.42257189	          0.15914265	          0.00000000	          0.04367775	          0.00000000	          0.00001108	          0.00000000	          0.00000000	          3.27782592	          0.00000000	
